<?xml version="1.0" encoding="UTF-8"?>
<svg id="Layer_2" data-name="Layer 2" xmlns="http://www.w3.org/2000/svg" xmlns:xlink="http://www.w3.org/1999/xlink" viewBox="0 0 23.62716 16.29815">
  <defs>
    <style>
      .cls-1 {
        fill: #231f20;
      }

      .cls-2 {
        fill: url(#linear-gradient);
      }

      .cls-3 {
        fill: #cc7629;
      }
    </style>
    <linearGradient id="linear-gradient" x1="1116.13661" y1="-1775.1969" x2="1111.10803" y2="-1761.50301" gradientTransform="translate(-418.98256 2211.70736) rotate(-21.14394) scale(1.07459)" gradientUnits="userSpaceOnUse">
      <stop offset="0" stop-color="#ffde00"/>
      <stop offset="1" stop-color="#e2992d"/>
    </linearGradient>
  </defs>
  <path class="cls-3" d="M3.57049,8.46841c.18871-.07448.71831-.61812.88122-.74119.29708-.22437.50877-.64723.50877-.64723l.46599.20197,4.5113,1.63215,5.49152,2.70155,2.0816.90191.46712.20236-.20243.466c-.24584.56587-.23877,1.17811-.02861,1.7106.21011.5324.62277.98409,1.18799,1.22903.5659.24513,1.39372-.1431,1.92658-.35356.53282-.21055.77004-.24264,1.01552-.80773.11848-.2726.17794-.55717.18417-.83905.00647-.29628-.04447-.58566-.14658-.85204l-.17803-.4646.46227-.18784c.26701-.10848.71385-.46411.92254-.66783.20096-.19624.14463-.70047.2639-.97512.24584-.56587.26144-.71584.05133-1.24824-.21011-.5324-.62268-.98413-1.18799-1.22903-.5659-.24513-1.17852-.23762-1.71147-.0271-.53278.21042-.98511.62317-1.23063,1.18839l-.20292.46697-.46602-.20184L6.55328,4.69128l-.46712-.20236.20235-.46595c.24584-.56586.23881-1.17825.02861-1.7106-.21011-.5324-.62268-.98413-1.18785-1.22899-.56595-.24522-1.17861-.23757-1.71161-.02714-.53273.2105-.98506.62326-1.23063,1.18839-.11839.27255-.17794.55717-.18408.83901-.00651.29641.04438.5857.14654.85217l.17807.46447-.46236.18789c-.267.10849-.5128.26783-.72157.47159-.20096.19624-.36826.43443-.48749.70896-.24593.56592-.23881,1.17825-.0287,1.71065s.91899.70539,1.48421.95033c.5659.24513.92595.24932,1.45885.03871Z"/>
  <path class="cls-2" d="M3.19017,7.86462c.53286-.21047.98524-.62335,1.23071-1.18844l.20296-.4671.46598.20197,12.08433,5.23566.46712.20236-.20235.46595c-.24584.56587-.23886,1.17816-.02861,1.7106.21011.5324.62268.98413,1.18785,1.22899.56595.24522,1.17866.23765,1.71152.02719.53281-.21055.98515-.62331,1.23071-1.18844.11834-.27264.17785-.55712.18408-.83901.00656-.29632-.04447-.58566-.14662-.85212l-.17799-.46451.46236-.18789c.26692-.10844.5128-.26783.72149-.47154.20105-.19629.36826-.43443.48758-.70901.24584-.56587.23881-1.17825.02856-1.71068-.21006-.53231-.62263-.98405-1.18785-1.22899-.56595-.24522-1.17861-.23756-1.71147-.0271-.53286.21047-.9852.62322-1.23071,1.18845l-.20292.46696-.46602-.20183L6.21656,3.82041l-.46712-.20236.20243-.466c.24584-.56587.23873-1.17819.02856-1.71068-.21006-.53231-.62272-.98399-1.18789-1.22885-.56595-.24522-1.17866-.23765-1.71152-.02719s-.98515.62331-1.23071,1.18844c-.11839.27255-.1779.55704-.18408.83901-.00656.29632.04447.58565.14657.85203l.17803.4646-.46236.18789c-.26691.10844-.5128.26783-.72149.47154-.20101.19615-.36835.43448-.48758.70901-.24584.56587-.23881,1.17825-.02861,1.7106.21011.5324.62269.98414,1.1879,1.22908.5659.24513,1.17861.23757,1.71147.0271Z"/>
  <path class="cls-1" d="M5.08588,6.42608c-.89569.08307-1.10031,1.35283-1.97658,1.54924-.58494.09965-1.17204.08231-1.74315-.09021C-.00353,7.31507-.47874,5.01021.78677,4.0767c.47606-.36787,1.25322-.32493,1.18565-.91566-.06244-.51141-.34918-1.11258-.15723-1.6944.18334-.54516.55123-1.07691,1.08773-1.31215,1.10691-.31537,2.5199-.07865,3.04231,1.06274.31668.53252.17715,1.22182-.07523,1.71932-.11072.27133-.22522.50845-.00018.60596,2.20164,1.2697,4.65666,2.07145,7.02464,3.00569,1.9405.89686,3.9204,2.01066,6.07421,2.22734-2.10405.05089-4.23796-1.15752-6.20258-1.95223-2.30922-.86773-4.876-1.72052-7.04565-3.06993-.34566-.18416-.21413-.64188-.06133-.91007.26235-.49649.39211-1.05386.12862-1.5492C5.34571.20132,3.98078-.00702,2.93494.24518c-.48328.20144-.84796.75576-1.00339,1.25244-.31067.74309.81974,1.96852-.25882,2.41011C.15335,4.31768-.00874,6.05331.84635,7.18449c.28275.49538.84854.56191,1.40256.6303.5645.05542,1.09871.03313,1.48154-.45061.32993-.27787.92195-1.14281,1.35544-.93809h0Z"/>
  <path class="cls-1" d="M17.6413,11.84906c-4.26191-1.64389-8.2401-3.92117-12.55145-5.43803,4.44329,1.1198,8.47262,3.41384,12.55145,5.43803h0Z"/>
  <path class="cls-1" d="M18.96985,8.79095c.41992-.08182.54822-.54404.82257-.82904.84867-.99917,2.55187-.62039,3.28368.36662.53798.71285.4098,1.68822.05653,2.42019-.21852.60606-.88942.92577-1.44854,1.10625-.13246.07868-.18995.19169-.18129.37019.01593.70673.61481,1.52795.18463,2.41364-.24713.41895-.70538.55936-1.09216.66025-.80363.17457-1.68341.19429-2.43042-.20048-.76207-.40281-1.00003-1.42236-.75441-2.19282.03084-.30517.61473-.85895.23091-1.05668.40432.18866-.14497.76859-.15771,1.07812-.31344,1.26212.59435,2.3214,1.89147,2.24197.68442-.02206,1.66458-.0711,2.06779-.67353.5328-.84812-.86462-2.21921.09108-2.90495.57057-.21821,1.0926-.35987,1.34502-.96728.33572-.68037.43845-1.5254.00235-2.15733-.62107-.90813-2.19656-1.32482-3.03303-.45315-.28087.25445-.44872.72234-.87847.77804h0Z"/>
</svg>