<?xml version="1.0" encoding="UTF-8"?>
<svg id="Layer_1" xmlns="http://www.w3.org/2000/svg" xmlns:xlink="http://www.w3.org/1999/xlink" version="1.1" viewBox="0 0 1000 1000">
  <!-- Generator: Adobe Illustrator 30.6.0, SVG Export Plug-In . SVG Version: 2.1.4 Build 109)  -->
  <defs>
    <style>
      .st0 {
        fill: #231f20;
      }

      .st1 {
        fill: #ed1c24;
      }

      .st2 {
        fill: #ba202b;
      }
    </style>
    <symbol id="Logo-Icon" viewBox="0 0 292.42814 415.5574">
      <g>
        <g>
          <path class="st1" d="M146.21411,277.03836c0,38.25112-31.0084,69.25952-69.25952,69.25952v9.27885c0,32.98958,26.99109,59.98067,59.98067,59.98067h18.5577c32.98958,0,59.98067-26.99109,59.98067-59.98067v-9.27885c-38.25112,0-69.25952-31.0084-69.25952-69.25952Z"/>
          <g>
            <path class="st1" d="M146.21411,277.03836v138.51904h9.27885c32.98958,0,59.98067-26.99109,59.98067-59.98067v-9.27885c-38.25112,0-69.25952-31.0084-69.25952-69.25952Z"/>
            <path class="st2" d="M76.95459,346.29788v9.27885c0,32.98958,26.99109,59.98067,59.98067,59.98067h9.27885v-138.51904c0,38.25112-31.0084,69.25952-69.25952,69.25952Z"/>
          </g>
        </g>
        <path class="st0" d="M284.73264,303.97281c-4.25357,0-7.6955,3.44569-7.6955,7.6955,0,14.84991-12.09233,26.09021-26.93426,26.93426-8.67764.49365-26.09773-1.42976-34.62929-3.09248-33.67252-6.56166-42.42813-31.80783-42.88749-64.40521,46.18382-17.11761,112.14701-63.32618,112.14701-120.77835V38.47751c0-21.25046-17.22705-38.47751-38.47751-38.47751H46.17254C24.92208,0,7.69503,17.22705,7.69503,38.47751v111.84902c0,57.45217,65.96319,103.66074,112.14701,120.77835-.45936,32.59738-9.21497,57.84355-42.88749,64.40521-8.53109,1.66272-25.95165,3.58613-34.62929,3.09248-14.84193-.84404-26.93426-12.08434-26.93426-26.93426,0-4.24981-3.44193-7.6955-7.6955-7.6955s-7.6955,3.44569-7.6955,7.6955c0,23.33826,19.0382,40.84055,42.32526,42.32526,9.0703.5782,18.40974,1.21463,34.62976,0,42.31211-3.16904,69.25858-17.68218,69.25858-44.02697,0-2.92198.00047-21.02736.00047-32.0577.00047,11.03035.00094,29.13572.00094,32.0577,0,26.34479,26.946,40.85793,69.25811,44.02697,16.22049,1.21463,25.55946.5782,34.62976,0,23.28754-1.48471,42.32526-18.987,42.32526-42.32526,0-4.24981-3.44193-7.6955-7.6955-7.6955Z"/>
      </g>
    </symbol>
  </defs>
  <use width="292.42814" height="415.5574" transform="translate(220 102.10372) scale(1.915)" xlink:href="#Logo-Icon"/>
</svg>