<svg width="850" height="200" viewBox="0 0 850 200" fill="none" xmlns="http://www.w3.org/2000/svg">
<g clip-path="url(#clip0_2707_7066)">
<path d="M111.21 120.5C111.21 131.822 102.032 141 90.7102 141V143.747C90.7102 153.511 98.6993 161.5 108.464 161.5H113.957C123.721 161.5 131.71 153.511 131.71 143.747V141C120.389 141 111.21 131.822 111.21 120.5Z" fill="#ED1C24" style="fill:#ED1C24;fill:color(display-p3 0.9294 0.1098 0.1412);fill-opacity:1;"/>
<path d="M111.21 120.5V161.5H113.957C123.721 161.5 131.71 153.511 131.71 143.747V141C120.389 141 111.21 131.822 111.21 120.5Z" fill="#ED1C24" style="fill:#ED1C24;fill:color(display-p3 0.9294 0.1098 0.1412);fill-opacity:1;"/>
<path d="M90.7102 141V143.747C90.7102 153.511 98.6993 161.5 108.464 161.5H111.21V120.5C111.21 131.822 102.032 141 90.7102 141Z" fill="#BA202B" style="fill:#BA202B;fill:color(display-p3 0.7294 0.1255 0.1686);fill-opacity:1;"/>
<path d="M152.21 128.472C150.951 128.472 149.933 129.492 149.933 130.75C149.933 135.146 146.353 138.473 141.96 138.723C139.392 138.869 134.236 138.299 131.71 137.807C121.744 135.865 119.152 128.392 119.016 118.744C132.686 113.677 152.211 100 152.211 82.9947V49.8885C152.211 43.5986 147.111 38.4996 140.822 38.4996H81.599C75.3091 38.4996 70.21 43.5986 70.21 49.8885V82.9947C70.21 100 89.7345 113.677 103.404 118.744C103.268 128.392 100.677 135.865 90.7101 137.807C88.185 138.299 83.0287 138.869 80.4602 138.723C76.0672 138.473 72.488 135.146 72.488 130.75C72.488 129.492 71.4692 128.472 70.2102 128.472C68.9511 128.472 67.9324 129.492 67.9324 130.75C67.9324 137.658 73.5675 142.839 80.4602 143.278C83.1449 143.449 85.9093 143.638 90.7103 143.278C103.234 142.34 111.21 138.044 111.21 130.247C111.21 129.382 111.21 124.023 111.21 120.758C111.21 124.023 111.211 129.382 111.211 130.247C111.211 138.044 119.186 142.34 131.71 143.278C136.511 143.638 139.276 143.449 141.96 143.278C148.853 142.839 154.488 137.658 154.488 130.75C154.488 129.492 153.469 128.472 152.21 128.472Z" fill="white" style="fill:white;fill-opacity:1;"/>
</g>
<g clip-path="url(#clip1_2707_7066)">
<path d="M269.75 117.26H255.75C254.646 117.26 253.75 116.365 253.75 115.26V44.8914C253.75 43.5688 255.011 42.6104 256.286 42.9644L270.286 46.8532C271.151 47.0937 271.75 47.8819 271.75 48.7803V115.26C271.75 116.365 270.855 117.26 269.75 117.26Z" fill="white" style="fill:white;fill-opacity:1;"/>
<path d="M357.549 136.428C355.615 136.428 353.682 136.243 351.749 135.877C350.076 135.56 348.578 135.13 347.256 134.589C346.883 134.437 346.649 134.066 346.649 133.663V121.185C346.649 120.518 347.296 120.044 347.937 120.23C348.8 120.481 349.571 120.664 350.249 120.777C351.249 120.943 352.249 121.027 353.249 121.027C354.649 121.027 355.932 120.743 357.099 120.178C358.265 119.61 359.288 118.502 359.999 116.777C360.307 116.033 360.273 115.632 359.852 114.589L340.705 67.2023C340.439 66.5449 340.923 65.8276 341.632 65.8276H360.197C360.643 65.8276 361.034 66.122 361.158 66.5498L370.349 98.3276H368.849L377.843 66.5553C377.965 66.1248 378.358 65.8276 378.805 65.8276H396.293C396.995 65.8276 397.478 66.5317 397.226 67.1867L378.549 115.728C376.615 120.728 374.549 124.743 372.349 127.777C370.149 130.811 367.815 133.01 365.349 134.377C362.882 135.743 360.282 136.428 357.549 136.428Z" fill="white" style="fill:white;fill-opacity:1;"/>
<path d="M221.759 119.37C220.917 119.37 219.456 119.316 217.384 119.211C215.308 119.106 213.113 118.666 210.793 117.893C208.471 117.121 206.503 115.749 204.888 113.781L208.26 107.875V136.896C208.26 138.461 206.786 139.606 205.271 139.219L193.096 136.11C190.973 135.568 189.488 133.656 189.488 131.465V76.1306C189.488 73.811 190.155 71.7722 191.492 70.0144C192.828 68.2565 194.692 66.7795 197.081 65.5835C199.471 64.3897 202.32 63.4932 205.625 62.894C208.928 62.2995 212.586 61.9975 216.593 61.9975C222.429 61.9975 227.438 62.894 231.621 64.687C235.803 66.4799 239.038 69.4854 241.323 73.7056C243.607 77.9236 244.752 83.7238 244.752 91.1063C244.752 96.6607 243.818 101.564 241.957 105.818C240.091 110.073 237.456 113.394 234.048 115.784C230.635 118.174 226.541 119.37 221.759 119.37ZM215.116 104.394C217.436 104.394 219.388 104.025 220.97 103.287C222.55 102.548 223.746 101.178 224.554 99.1747C225.362 97.171 225.769 94.2358 225.769 90.3667C225.769 87.415 225.434 85.0252 224.767 83.1971C224.098 81.3691 223.042 80.0161 221.602 79.136C220.161 78.2583 218.208 77.8182 215.748 77.8182C212.513 77.8182 210.458 78.0991 209.581 78.6609C208.701 79.225 208.26 79.9623 208.26 80.8752V102.812C209.246 103.306 210.405 103.692 211.741 103.973C213.075 104.254 214.201 104.394 215.116 104.394Z" fill="white" style="fill:white;fill-opacity:1;"/>
<path d="M291.453 115.784C288.045 113.394 285.409 110.073 283.544 105.818C281.683 101.565 280.749 96.6608 280.749 91.1063C280.749 83.7238 281.893 77.9236 284.178 73.7057C286.462 69.4854 289.697 66.48 293.88 64.687C298.063 62.894 303.072 61.9976 308.907 61.9976C312.915 61.9976 316.573 62.2995 319.876 62.894C323.181 63.4933 326.029 64.3897 328.419 65.5835C330.809 66.7796 332.672 68.2565 334.009 70.0144C335.345 71.7723 336.012 73.811 336.012 76.1306V118.657C336.012 119.5 335.324 120.181 334.481 120.172L318.739 119.999C317.908 119.99 317.24 119.314 317.24 118.484V113.583C317.24 112.029 319.3 111.482 320.071 112.832C320.41 113.425 320.305 114.17 319.829 114.661C318.373 116.164 316.666 117.242 314.707 117.893C312.388 118.666 310.192 119.106 308.116 119.211C306.045 119.316 304.584 119.37 303.741 119.37C298.959 119.37 294.865 118.174 291.453 115.784ZM313.759 103.973C314.675 103.781 315.507 103.539 316.258 103.247C316.848 103.017 317.24 102.456 317.24 101.822L317.24 80.8752C317.24 79.9623 316.8 79.225 315.92 78.6609C315.042 78.0991 312.987 77.8182 309.752 77.8182C307.292 77.8182 305.34 78.2583 303.898 79.1361C302.459 80.0162 301.403 81.3691 300.734 83.1971C300.066 85.0252 299.732 87.4151 299.732 90.3667C299.732 94.2358 300.139 97.171 300.947 99.1747C301.754 101.178 302.95 102.548 304.53 103.287C306.112 104.025 308.065 104.394 310.384 104.394C311.299 104.394 312.425 104.254 313.759 103.973Z" fill="white" style="fill:white;fill-opacity:1;"/>
</g>
<g clip-path="url(#clip2_2707_7066)">
<path d="M464.565 118.724C463.722 118.724 462.262 118.67 460.19 118.565C458.114 118.46 455.918 118.02 453.599 117.247C451.277 116.475 449.308 115.103 447.693 113.135L451.066 107.229V136.25C451.066 137.815 449.592 138.96 448.076 138.573L435.902 135.464C433.779 134.922 432.294 133.01 432.294 130.819V75.4846C432.294 73.165 432.961 71.1263 434.298 69.3684C435.634 67.6106 437.497 66.1336 439.887 64.9375C442.277 63.7437 445.126 62.8473 448.431 62.248C451.733 61.6535 455.392 61.3516 459.399 61.3516C465.234 61.3516 470.244 62.248 474.426 64.041C478.609 65.834 481.844 68.8394 484.128 73.0597C486.413 77.2776 487.558 83.0778 487.558 90.4603C487.558 96.0148 486.624 100.919 484.763 105.172C482.897 109.427 480.262 112.748 476.854 115.138C473.441 117.528 469.347 118.724 464.565 118.724ZM457.922 103.748C460.242 103.748 462.194 103.379 463.776 102.641C465.356 101.902 466.552 100.532 467.36 98.5287C468.167 96.5251 468.575 93.5898 468.575 89.7207C468.575 86.7691 468.24 84.3792 467.573 82.5512C466.903 80.7231 465.848 79.3702 464.408 78.4901C462.966 77.6123 461.014 77.1723 458.554 77.1723C455.319 77.1723 453.264 77.4531 452.386 78.0149C451.506 78.579 451.066 79.3163 451.066 80.2292V102.166C452.052 102.66 453.21 103.046 454.547 103.327C455.881 103.608 457.007 103.748 457.922 103.748Z" fill="white" style="fill:white;fill-opacity:1;"/>
<path d="M523.517 118.724C518.387 118.724 513.832 117.968 509.862 116.456C505.887 114.946 502.758 112.554 500.476 109.284C498.189 106.017 497.047 101.71 497.047 96.3659V64.8986C497.047 64.1044 497.691 63.4605 498.485 63.4605H514.804C515.599 63.4605 516.243 64.1044 516.243 64.8986V95.2049C516.243 97.7375 516.823 99.6522 517.984 100.954C519.145 102.255 521.022 102.903 523.625 102.903C526.298 102.903 528.194 102.255 529.318 100.954C530.446 99.6522 531.008 97.7375 531.008 95.2049V64.8986C531.008 64.1044 531.652 63.4605 532.446 63.4605H547.392C548.186 63.4605 548.83 64.1044 548.83 64.8986V96.3659C548.83 104.313 546.545 110.024 541.976 113.504C537.402 116.983 531.251 118.724 523.517 118.724Z" fill="white" style="fill:white;fill-opacity:1;"/>
<path d="M591.224 118.724C590.381 118.724 588.92 118.67 586.846 118.565C584.773 118.46 582.577 118.02 580.255 117.247C577.933 116.475 575.967 115.103 574.352 113.135L577.722 107.229V130.819C577.722 133.01 576.237 134.922 574.115 135.464L561.94 138.573C560.424 138.96 558.95 137.815 558.95 136.25V75.4846C558.95 73.165 559.62 71.1263 560.954 69.3684C562.293 67.6106 564.156 66.1336 566.543 64.9375C568.936 63.7437 571.782 62.8473 575.087 62.248C578.392 61.6535 582.048 61.3516 586.055 61.3516C591.893 61.3516 596.902 62.248 601.083 64.041C605.268 65.834 608.503 68.8394 610.787 73.0597C613.072 77.2776 614.214 83.0778 614.214 90.4603C614.214 96.0148 613.282 100.919 611.419 105.172C609.556 109.427 606.92 112.748 603.512 115.138C600.099 117.528 596.003 118.724 591.224 118.724ZM584.581 103.748C586.898 103.748 588.85 103.379 590.432 102.641C592.015 101.902 593.208 100.532 594.018 98.5287C594.824 96.5251 595.231 93.5898 595.231 89.7207C595.231 86.7691 594.898 84.3792 594.229 82.5512C593.56 80.7231 592.506 79.3702 591.064 78.4901C589.623 77.6123 587.67 77.1723 585.213 77.1723C581.978 77.1723 579.923 77.4531 579.043 78.0149C578.163 78.579 577.722 79.3163 577.722 80.2292V102.166C578.71 102.66 579.867 103.046 581.205 103.327C582.54 103.608 583.663 103.748 584.581 103.748Z" fill="white" style="fill:white;fill-opacity:1;"/>
<path d="M650.697 118.724C646.479 118.724 642.594 118.073 639.045 116.772C635.492 115.473 632.379 113.626 629.711 111.236C627.038 108.846 624.964 105.981 623.489 102.641C622.01 99.3011 621.275 95.5584 621.275 91.4083C621.275 86.8393 621.94 82.7267 623.279 79.0706C624.613 75.4144 626.546 72.3036 629.079 69.7359C631.607 67.1705 634.668 65.202 638.254 63.8304C641.84 62.4587 645.913 61.7752 650.487 61.7752C653.506 61.7752 656.638 62.0912 659.873 62.7232C662.716 63.2796 665.183 64.0282 667.268 64.9675C667.791 65.2031 668.098 65.7327 668.098 66.3063L668.098 79.2698C668.098 80.3137 667.005 80.9815 666.051 80.5563C664.741 79.9717 663.465 79.4364 662.225 78.9506C660.094 78.116 656.496 77.2224 654.208 77.1768C650.358 77.1001 647.061 77.995 644.317 79.8617C641.681 81.6547 640.361 84.625 640.361 88.7727C640.361 93.3441 641.452 96.8574 643.633 99.3198C645.81 101.78 649.536 103.009 654.808 103.009C657.41 103.009 659.924 102.466 662.349 101.375C664.522 100.4 664.64 100.329 666.155 99.5204C667.794 98.6452 668.196 99.7081 668.389 100.817C668.964 104.128 669.548 107.547 670.507 111.234C670.907 112.769 670.374 113.251 669.613 113.678C666.156 115.614 662.627 116.972 660.556 117.563C657.85 118.336 654.564 118.724 650.697 118.724Z" fill="white" style="fill:white;fill-opacity:1;"/>
<path d="M706.382 118.724C701.247 118.724 696.697 117.968 692.727 116.456C688.752 114.946 685.62 112.554 683.341 109.284C681.051 106.017 679.909 101.71 679.909 96.3659V64.8986C679.909 64.1044 680.553 63.4605 681.347 63.4605H697.669C698.464 63.4605 699.107 64.1044 699.107 64.8986V95.2049C699.107 97.7375 699.683 99.6522 700.844 100.954C702.005 102.255 703.887 102.903 706.485 102.903C709.158 102.903 711.059 102.255 712.183 100.954C713.306 99.6522 713.868 97.7375 713.868 95.2049V64.8986C713.868 64.1044 714.512 63.4605 715.306 63.4605H730.256C731.051 63.4605 731.695 64.1044 731.695 64.8986V96.3659C731.695 104.313 729.405 110.024 724.836 113.504C720.267 116.983 714.116 118.724 706.382 118.724Z" fill="white" style="fill:white;fill-opacity:1;"/>
<path d="M774.749 118.724C773.906 118.724 772.445 118.67 770.376 118.565C768.298 118.46 766.102 118.02 763.785 117.247C761.463 116.475 759.492 115.103 757.877 113.135L761.252 107.229V136.25C761.252 137.815 759.778 138.96 758.262 138.573L746.088 135.464C743.965 134.922 742.48 133.01 742.48 130.819V75.4846C742.48 73.165 743.145 71.1263 744.484 69.3684C745.818 67.6106 747.681 66.1336 750.073 64.9375C752.461 63.7437 755.312 62.8473 758.617 62.248C761.917 61.6535 765.578 61.3516 769.585 61.3516C775.418 61.3516 780.427 62.248 784.612 64.041C788.793 65.834 792.028 68.8394 794.312 73.0597C796.597 77.2776 797.744 83.0778 797.744 90.4603C797.744 96.0148 796.807 100.919 794.949 105.172C793.081 109.427 790.445 112.748 787.037 115.138C783.625 117.528 779.533 118.724 774.749 118.724ZM768.106 103.748C770.428 103.748 772.38 103.379 773.962 102.641C775.54 101.902 776.738 100.532 777.543 98.5287C778.353 96.5251 778.761 93.5898 778.761 89.7207C778.761 86.7691 778.424 84.3792 777.759 82.5512C777.089 80.7231 776.031 79.3702 774.594 78.4901C773.152 77.6123 771.2 77.1723 768.738 77.1723C765.503 77.1723 763.448 77.4531 762.572 78.0149C761.692 78.579 761.252 79.3163 761.252 80.2292V102.166C762.235 102.66 763.396 103.046 764.731 103.327C766.065 103.608 767.193 103.748 768.106 103.748Z" fill="white" style="fill:white;fill-opacity:1;"/>
<path d="M769.694 132.906V138.356H768.736V132.906H767.276V132.005H771.151V132.906H769.694Z" fill="white" style="fill:white;fill-opacity:1;"/>
<path d="M771.784 138.356L773.121 131.528L775.301 136.464L777.56 131.528L778.761 138.356H777.778L777.165 134.523L775.285 138.648L773.458 134.518L772.776 138.356L771.784 138.356Z" fill="white" style="fill:white;fill-opacity:1;"/>
</g>
<defs>
<clipPath id="clip0_2707_7066">
<rect width="86.5558" height="123.001" fill="white" style="fill:white;fill-opacity:1;" transform="translate(67.9324 38.4996)"/>
</clipPath>
<clipPath id="clip1_2707_7066">
<rect width="207.806" height="96.4042" fill="white" style="fill:white;fill-opacity:1;" transform="translate(189.488 42.8902)"/>
</clipPath>
<clipPath id="clip2_2707_7066">
<rect width="365.45" height="77.2969" fill="white" style="fill:white;fill-opacity:1;" transform="translate(432.294 61.3516)"/>
</clipPath>
</defs>
</svg>
