<?xml version="1.0" encoding="UTF-8"?>
<svg id="Layer_1" xmlns="http://www.w3.org/2000/svg" xmlns:xlink="http://www.w3.org/1999/xlink" version="1.1" viewBox="0 0 850 210">
  <!-- Generator: Adobe Illustrator 30.6.0, SVG Export Plug-In . SVG Version: 2.1.4 Build 109)  -->
  <defs>
    <style>
      .st0 {
        fill: #231f20;
      }

      .st1 {
        fill: #ed1c24;
      }

      .st2 {
        fill: #ba202b;
      }
    </style>
    <symbol id="Logo-Icon" viewBox="0 0 292.42814 415.5574">
      <g>
        <g>
          <path class="st1" d="M146.21411,277.03836c0,38.25112-31.0084,69.25952-69.25952,69.25952v9.27885c0,32.98958,26.99109,59.98067,59.98067,59.98067h18.5577c32.98958,0,59.98067-26.99109,59.98067-59.98067v-9.27885c-38.25112,0-69.25952-31.0084-69.25952-69.25952Z"/>
          <g>
            <path class="st1" d="M146.21411,277.03836v138.51904h9.27885c32.98958,0,59.98067-26.99109,59.98067-59.98067v-9.27885c-38.25112,0-69.25952-31.0084-69.25952-69.25952Z"/>
            <path class="st2" d="M76.95459,346.29788v9.27885c0,32.98958,26.99109,59.98067,59.98067,59.98067h9.27885v-138.51904c0,38.25112-31.0084,69.25952-69.25952,69.25952Z"/>
          </g>
        </g>
        <path class="st0" d="M284.73264,303.97281c-4.25357,0-7.6955,3.44569-7.6955,7.6955,0,14.84991-12.09233,26.09021-26.93426,26.93426-8.67764.49365-26.09773-1.42976-34.62929-3.09248-33.67252-6.56166-42.42813-31.80783-42.88749-64.40521,46.18382-17.11761,112.14701-63.32618,112.14701-120.77835V38.47751c0-21.25046-17.22705-38.47751-38.47751-38.47751H46.17254C24.92208,0,7.69503,17.22705,7.69503,38.47751v111.84902c0,57.45217,65.96319,103.66074,112.14701,120.77835-.45936,32.59738-9.21497,57.84355-42.88749,64.40521-8.53109,1.66272-25.95165,3.58613-34.62929,3.09248-14.84193-.84404-26.93426-12.08434-26.93426-26.93426,0-4.24981-3.44193-7.6955-7.6955-7.6955s-7.6955,3.44569-7.6955,7.6955c0,23.33826,19.0382,40.84055,42.32526,42.32526,9.0703.5782,18.40974,1.21463,34.62976,0,42.31211-3.16904,69.25858-17.68218,69.25858-44.02697,0-2.92198.00047-21.02736.00047-32.0577.00047,11.03035.00094,29.13572.00094,32.0577,0,26.34479,26.946,40.85793,69.25811,44.02697,16.22049,1.21463,25.55946.5782,34.62976,0,23.28754-1.48471,42.32526-18.987,42.32526-42.32526,0-4.24981-3.44193-7.6955-7.6955-7.6955Z"/>
      </g>
    </symbol>
    <symbol id="play" viewBox="0 0 207.80586 96.4042">
      <g>
        <path class="st0" d="M80.26214,74.36988h-14c-1.10457,0-2-.89543-2-2V2.00116c0-1.32264,1.2609-2.28103,2.53529-1.92704l14,3.88889c.86564.24046,1.46471,1.02862,1.46471,1.92704v66.47983c0,1.10457-.89543,2-2,2Z"/>
        <path class="st0" d="M168.06097,93.5375c-1.93408,0-3.86719-.18457-5.7998-.55029-1.67345-.31763-3.17116-.74742-4.49376-1.28843-.37259-.15241-.60634-.52322-.60634-.92578v-12.47774c0-.66756.64681-1.14165,1.28779-.95514.86286.25108,1.63369.43367,2.31231.54699,1,.16602,2,.25,3,.25,1.3999,0,2.68262-.28418,3.8501-.84961,1.16553-.56738,2.18871-1.67607,2.8999-3.40039.30719-.74479.274-1.14491-.14756-2.18822l-19.14711-47.38686c-.2656-.65733.21822-1.37463.92717-1.37463h18.56545c.44527,0,.8369.29441.96062.72215l9.19151,31.77785h-1.5l8.99374-31.77237c.12185-.43047.51481-.72763.96219-.72763h17.48773c.70184,0,1.18533.70409.9333,1.35911l-18.67725,48.54079c-1.93408,5-4,9.01562-6.19971,12.0498-2.2002,3.0332-4.53467,5.23291-7,6.6001-2.46729,1.36572-5.06738,2.05029-7.80029,2.05029Z"/>
        <path class="st0" d="M32.27104,76.47987c-.84265,0-2.30324-.05384-4.37474-.15917-2.07619-.10533-4.27175-.54538-6.59137-1.31781-2.32196-.77243-4.29048-2.14407-5.90555-4.11259l3.37293-5.90555v29.02135c0,1.56432-1.47422,2.70939-2.9899,2.32234l-12.17475-3.10896c-2.12257-.54202-3.60765-2.454-3.60765-4.64468v-55.33444c0-2.31962.6671-4.35836,2.00363-6.11621s3.19972-3.23483,5.58956-4.43092c2.38984-1.19375,5.23846-2.09023,8.54351-2.68945,3.30271-.59453,6.9612-.89648,10.96846-.89648,5.83533,0,10.8444.89648,15.02721,2.68945s7.41764,4.79841,9.70215,9.01866c2.28451,4.21792,3.42911,10.01814,3.42911,17.40066,0,5.55445-.93393,10.45819-2.79478,14.71121-1.86553,4.25537-4.50114,7.5768-7.90918,9.96664-3.41272,2.38984-7.50658,3.58593-12.2886,3.58593ZM25.62818,61.50416c2.31962,0,4.27175-.36983,5.85406-1.10714,1.57996-.73966,2.77605-2.10896,3.58359-4.11259s1.21482-4.93885,1.21482-8.808c0-2.95161-.33472-5.34145-1.00181-7.16952-.66944-1.82808-1.72509-3.18099-3.16461-4.06109-1.44186-.87776-3.394-1.31781-5.85406-1.31781-3.23483,0-5.28995.28088-6.16771.84265-.8801.56411-1.32015,1.30142-1.32015,2.21429v21.93691c.98543.49388,2.14407.8801,3.4806,1.16098,1.33419.28088,2.46006.42132,3.37527.42132Z"/>
        <path class="st0" d="M101.96464,72.89394c-3.40804-2.38984-6.04365-5.71127-7.90918-9.96664-1.86085-4.25303-2.79478-9.15677-2.79478-14.71121,0-7.38253,1.1446-13.18275,3.42911-17.40066,2.28451-4.22026,5.51934-7.2257,9.70215-9.01866s9.19188-2.68945,15.02721-2.68945c4.00726,0,7.66575.30195,10.96846.89648,3.30505.59922,6.15366,1.4957,8.54351,2.68945,2.38984,1.19609,4.25303,2.67306,5.58956,4.43092s2.00363,3.79659,2.00363,6.11621v42.52592c0,.84333-.68857,1.52437-1.53185,1.51511l-15.74191-.17298c-.83028-.00912-1.49855-.68478-1.49855-1.51511v-4.90052c0-1.55395,2.06023-2.10084,2.83092-.75147l.00004.00007c.33906.59364.23351,1.338-.24211,1.82907-1.45566,1.50292-3.16282,2.58086-5.12148,3.23243-2.31962.77243-4.51518,1.21248-6.59137,1.31781-2.07151.10533-3.5321.15917-4.37474.15917-4.78202,0-8.87588-1.19609-12.2886-3.58593ZM124.27138,61.08284c.91572-.19244,1.74792-.43433,2.49813-.72642.59061-.22995.98249-.79087.98249-1.42467l-.00002-20.9468c0-.91287-.44005-1.65018-1.32015-2.21429-.87776-.56176-2.93288-.84265-6.16771-.84265-2.46006,0-4.41219.44005-5.85406,1.31781-1.43952.8801-2.49517,2.23301-3.16461,4.06109-.6671,1.82808-1.00181,4.21792-1.00181,7.16952,0,3.86915.40728,6.80438,1.21482,8.808s2.00363,3.37293,3.58359,4.11259c1.5823.73732,3.53444,1.10714,5.85406,1.10714.91521,0,2.04108-.14044,3.37527-.42132Z"/>
      </g>
    </symbol>
    <symbol id="pupcup" viewBox="0 0 365.44973 77.29689">
      <g>
        <g>
          <path class="st0" d="M32.27104,57.37257c-.84265,0-2.30324-.05384-4.37474-.15917-2.07619-.10533-4.27175-.54538-6.59137-1.31781-2.32196-.77243-4.29048-2.14407-5.90555-4.11259l3.37293-5.90555v29.02135c0,1.56432-1.47422,2.70939-2.9899,2.32234l-12.17475-3.10896c-2.12257-.54202-3.60765-2.454-3.60765-4.64468V14.13306c0-2.31962.6671-4.35836,2.00363-6.11621s3.19972-3.23483,5.58956-4.43092c2.38984-1.19375,5.23846-2.09023,8.54351-2.68945,3.30271-.59453,6.9612-.89648,10.96846-.89648,5.83533,0,10.8444.89648,15.02721,2.68945s7.41764,4.79841,9.70215,9.01866c2.28451,4.21792,3.42911,10.01814,3.42911,17.40066,0,5.55445-.93393,10.45819-2.79478,14.71121-1.86553,4.25537-4.50114,7.5768-7.90918,9.96664-3.41272,2.38984-7.50658,3.58593-12.2886,3.58593ZM25.62818,42.39685c2.31962,0,4.27175-.36983,5.85406-1.10714,1.57996-.73966,2.77605-2.10896,3.58359-4.11259s1.21482-4.93885,1.21482-8.808c0-2.95161-.33472-5.34145-1.00181-7.16952-.66944-1.82808-1.72509-3.18099-3.16461-4.06109-1.44186-.87776-3.394-1.31781-5.85406-1.31781-3.23483,0-5.28995.28088-6.16771.84265-.8801.56411-1.32015,1.30142-1.32015,2.21429v21.93691c.98543.49388,2.14407.8801,3.4806,1.16098,1.33419.28088,2.46006.42132,3.37527.42132Z"/>
          <path class="st0" d="M91.22357,57.37257c-5.13078,0-9.68576-.75604-13.65556-2.26813-3.97449-1.50974-7.10398-3.90192-9.38615-7.17186-2.28685-3.2676-3.42911-7.57446-3.42911-12.91825V3.54708c0-.79425.64387-1.43812,1.43812-1.43812h16.31973c.79425,0,1.43812.64387,1.43812,1.43812v30.30627c0,2.53262.58049,4.4473,1.74147,5.74873s3.03821,1.94979,5.64105,1.94979c2.67306,0,4.56902-.64837,5.69255-1.94979,1.12821-1.30142,1.68998-3.2161,1.68998-5.74873V3.54708c0-.79425.64387-1.43812,1.43812-1.43812h14.94575c.79425,0,1.43812.64387,1.43812,1.43812v31.46725c0,7.94663-2.28451,13.65791-6.85353,17.13851-4.5737,3.47826-10.72503,5.21973-18.45865,5.21973Z"/>
          <path class="st0" d="M158.92954,57.37257c-.84265,0-2.30324-.05384-4.37708-.15917s-4.26941-.54538-6.59137-1.31781-4.28814-2.14407-5.90321-4.11259l3.37059-5.90555v23.59005c0,2.19068-1.48508,4.10266-3.60765,4.64468l-12.17475,3.10896c-1.51568.38705-2.9899-.75802-2.9899-2.32234V14.13306c0-2.31962.66944-4.35836,2.00363-6.11621,1.33887-1.75786,3.20206-3.23483,5.58956-4.43092,2.39218-1.19375,5.23846-2.09023,8.54351-2.68945,3.30505-.59453,6.9612-.89648,10.96846-.89648,5.83767,0,10.84674.89648,15.02721,2.68945,4.18515,1.79297,7.41998,4.79841,9.70449,9.01866,2.28451,4.21792,3.42676,10.01814,3.42676,17.40066,0,5.55445-.93159,10.45819-2.79478,14.71121-1.86319,4.25537-4.4988,7.5768-7.90684,9.96664-3.41272,2.38984-7.50892,3.58593-12.2886,3.58593ZM152.28667,42.39685c2.31728,0,4.26941-.36983,5.85172-1.10714,1.5823-.73966,2.77605-2.10896,3.58593-4.11259.8052-2.00363,1.21248-4.93885,1.21248-8.808,0-2.95161-.33238-5.34145-1.00181-7.16952s-1.72275-3.18099-3.16461-4.06109c-1.44186-.87776-3.394-1.31781-5.85172-1.31781-3.23483,0-5.28995.28088-6.17005.84265-.8801.56411-1.32015,1.30142-1.32015,2.21429v21.93691c.98777.49388,2.14407.8801,3.48294,1.16098,1.33419.28088,2.45772.42132,3.37527.42132Z"/>
          <path class="st0" d="M218.40346,57.37257c-4.21792,0-8.10346-.65071-11.65194-1.95213-3.55316-1.29908-6.66628-3.14588-9.33466-5.53572-2.67306-2.38984-4.74691-5.25484-6.22154-8.595-1.47931-3.34016-2.21429-7.08292-2.21429-11.23295,0-4.56902.66475-8.68161,2.00363-12.33776,1.33419-3.65615,3.2676-6.76692,5.80022-9.33466,2.52794-2.56539,5.58956-4.53391,9.17549-5.90555s7.65873-2.05512,12.23243-2.05512c3.01949,0,6.15132.31599,9.38615.94798,2.84356.55635,5.30982,1.30498,7.39551,2.24432.52301.23555.82977.76519.82977,1.3388l-.0001,12.96343c0,1.04398-1.09338,1.71176-2.04683,1.2865-1.31054-.58453-2.58568-1.11987-3.82611-1.60566-2.13116-.83463-5.72893-1.72823-8.01724-1.77382-3.85013-.07671-7.14721.81825-9.89119,2.68494-2.63561,1.79297-3.95576,4.7633-3.95576,8.91099,0,4.57136,1.09076,8.08473,3.27228,10.54713,2.17684,2.46006,5.90321,3.68892,11.17444,3.68892,2.60284,0,5.11674-.54304,7.54169-1.6338,2.17249-.9751,2.29067-1.04584,3.80533-1.85456,1.63913-.87517,2.04167.18768,2.23418,1.29638.57485,3.31072,1.159,6.73,2.11866,10.41692.39965,1.53544-.1331,2.01746-.89453,2.44392-3.45735,1.93638-6.98628,3.29451-9.05661,3.88552-2.70583.77243-5.99216,1.16098-9.85897,1.16098Z"/>
          <path class="st0" d="M274.08832,57.37257c-5.13547,0-9.68576-.75604-13.65556-2.26813-3.97449-1.50974-7.10632-3.90192-9.38615-7.17186-2.28919-3.2676-3.43145-7.57446-3.43145-12.91825V3.54708c0-.79425.64387-1.43812,1.43812-1.43812h16.32207c.79425,0,1.43812.64387,1.43812,1.43812v30.30627c0,2.53262.57581,4.4473,1.73679,5.74873s3.04289,1.94979,5.64105,1.94979c2.67306,0,4.5737-.64837,5.69723-1.94979s1.68529-3.2161,1.68529-5.74873V3.54708c0-.79425.64387-1.43812,1.43812-1.43812h14.95043c.79425,0,1.43812.64387,1.43812,1.43812v31.46725c0,7.94663-2.28919,13.65791-6.85821,17.13851-4.56902,3.47826-10.72034,5.21973-18.45397,5.21973Z"/>
          <path class="st0" d="M342.45482,57.37257c-.84265,0-2.30324-.05384-4.3724-.15917-2.07853-.10533-4.27409-.54538-6.59137-1.31781-2.32196-.77243-4.29282-2.14407-5.90789-4.11259l3.37527-5.90555v29.02135c0,1.56432-1.47422,2.70939-2.9899,2.32234l-12.17475-3.10896c-2.12257-.54202-3.60765-2.454-3.60765-4.64468V14.13306c0-2.31962.66475-4.35836,2.00363-6.11621,1.33419-1.75786,3.19738-3.23483,5.58956-4.43092,2.3875-1.19375,5.23846-2.09023,8.54351-2.68945,3.30037-.59453,6.9612-.89648,10.96846-.89648,5.83299,0,10.84206.89648,15.02721,2.68945,4.18047,1.79297,7.41529,4.79841,9.6998,9.01866,2.28451,4.21792,3.43145,10.01814,3.43145,17.40066,0,5.55445-.93627,10.45819-2.79478,14.71121-1.86787,4.25537-4.50348,7.5768-7.91152,9.96664-3.41272,2.38984-7.50424,3.58593-12.2886,3.58593ZM335.81196,42.39685c2.32196,0,4.27409-.36983,5.8564-1.10714,1.57762-.73966,2.77605-2.10896,3.58125-4.11259.80988-2.00363,1.21716-4.93885,1.21716-8.808,0-2.95161-.33706-5.34145-1.00181-7.16952-.66944-1.82808-1.72743-3.18099-3.16461-4.06109-1.44186-.87776-3.394-1.31781-5.8564-1.31781-3.23483,0-5.28995.28088-6.16537.84265-.8801.56411-1.32015,1.30142-1.32015,2.21429v21.93691c.98309.49388,2.14407.8801,3.47826,1.16098s2.4624.42132,3.37527.42132Z"/>
        </g>
        <g>
          <path class="st0" d="M337.40044,71.55434v5.45049h-.95846v-5.45049h-1.46032v-.90087h3.87499v.90087h-1.45621Z"/>
          <path class="st0" d="M339.49014,77.00483l1.33691-6.82854,2.1802,4.93629,2.25835-4.93629,1.20116,6.82854h-.98314l-.61292-3.83385-1.8799,4.12592-1.82643-4.13003-.68285,3.83797h-.99137Z"/>
        </g>
      </g>
    </symbol>
  </defs>
  <use width="292.42814" height="415.5574" transform="translate(307.00852 48.76587) scale(.29599)" xlink:href="#Logo-Icon"/>
  <use width="365.44973" height="77.29689" transform="translate(431.83404 75.94514)" xlink:href="#pupcup"/>
  <use width="207.80586" height="96.4042" transform="translate(67.93237 56.83784)" xlink:href="#play"/>
</svg>